<?xml version="1.0" encoding="utf-8"?>
<!-- Generator: Adobe Illustrator 26.5.0, SVG Export Plug-In . SVG Version: 6.00 Build 0)  -->
<svg version="1.1" id="Camada_1" xmlns="http://www.w3.org/2000/svg" xmlns:xlink="http://www.w3.org/1999/xlink" x="0px" y="0px"
	 viewBox="0 0 68.76 67.19" style="enable-background:new 0 0 68.76 67.19;" xml:space="preserve">
<style type="text/css">
	.st0{fill:#1B1B1B;}
	.st1{fill:#DBA1AD;}
	.st2{fill:#F9F9F9;}
	.st3{filter:url(#Adobe_OpacityMaskFilter);}
	.st4{fill:#FFFFFF;}
	.st5{filter:url(#Adobe_OpacityMaskFilter_00000109751713229353566420000007454151809175652798_);}
	.st6{fill:#DEC5CB;}
	.st7{fill:#56585D;}
	.st8{fill:#1A1A1A;}
	.st9{filter:url(#Adobe_OpacityMaskFilter_00000042736333568932746110000002101984104723150258_);}
	.st10{fill:none;stroke:#FFFFFF;stroke-miterlimit:10;}
	.st11{fill:#101009;}
	.st12{fill:none;stroke:#101009;stroke-width:1.306;stroke-miterlimit:10;}
	.st13{fill:none;stroke:#101009;stroke-width:1.384;stroke-miterlimit:10;}
	.st14{fill:none;stroke:#101009;stroke-width:1.306;stroke-linecap:round;stroke-miterlimit:10;}
	.st15{fill:#FFFFFF;stroke:#1B1B1B;stroke-miterlimit:10;}
</style>
<rect x="6.87" y="5.77" class="st0" width="51.15" height="51.15"/>
<path class="st1" d="M0,56.68V10.51c0.05-0.2,0.09-0.39,0.14-0.59C1.46,3.91,6.3,0.01,12.45,0.01c14.69,0,29.39-0.01,44.08,0.01
	c6.82,0.01,12.23,5.44,12.23,12.25c0.01,14.22,0.01,28.45,0,42.67c0,6.78-5.4,12.24-12.16,12.25c-14.83,0.02-29.65,0.02-44.48,0
	c-3.5-0.01-6.48-1.35-8.9-3.9C1.45,61.41,0.48,59.16,0,56.68 M27.98,17.36L27.98,17.36c-1.1,0-2.19,0.01-3.29,0
	c-0.51-0.01-0.76,0.23-0.74,0.73c0.02,1.01-0.3,1.94-0.62,2.87c-2.95,8.49-5.9,16.98-8.84,25.47c-0.29,0.84-0.22,0.95,0.65,0.95
	c1.43,0.01,2.86-0.02,4.29,0.01c0.62,0.01,0.93-0.23,1.11-0.81c0.58-1.86,1.21-3.7,1.78-5.55c0.17-0.56,0.43-0.78,1.03-0.78
	c3.09,0.03,6.17,0.03,9.26,0c0.57,0,0.83,0.21,1,0.73c0.63,1.91,1.32,3.8,1.96,5.71c0.17,0.5,0.45,0.71,0.98,0.7
	c1.61-0.02,3.22-0.01,4.83-0.01c0.88,0,0.98-0.15,0.68-1c-1.02-2.89-2.04-5.77-3.07-8.66c-2.32-6.53-4.64-13.06-6.94-19.6
	c-0.2-0.56-0.49-0.78-1.07-0.76C29.99,17.38,28.99,17.36,27.98,17.36 M45.52,35.94c0,3.51,0,7.02,0,10.54
	c0,0.82,0.08,0.89,0.88,0.89c1.52,0.01,3.04-0.01,4.56,0.01c0.57,0.01,0.8-0.2,0.8-0.78c-0.01-7.07-0.01-14.14,0-21.2
	c0-0.55-0.21-0.76-0.75-0.75c-1.48,0.02-2.95,0.01-4.43,0.01c-1.05,0-1.06,0.01-1.06,1.03C45.51,29.1,45.51,32.52,45.52,35.94
	 M48.64,22.03c2.07,0.01,3.5-1.42,3.52-3.49c0.01-2.07-1.36-3.46-3.42-3.47c-2.07-0.01-3.57,1.43-3.58,3.44
	C45.14,20.59,46.55,22.02,48.64,22.03"/>
<path class="st1" d="M27.84,22.6c0.31,0.14,0.3,0.42,0.37,0.64c1.07,3.46,2.13,6.92,3.19,10.38c0.29,0.94,0.28,0.95-0.74,0.95
	c-1.9,0-3.8-0.01-5.7,0.01c-0.54,0-0.73-0.16-0.56-0.72c1.09-3.62,2.15-7.24,3.23-10.86C27.68,22.86,27.77,22.74,27.84,22.6"/>
</svg>
