<?xml version="1.0" encoding="utf-8"?>
<!-- Generator: Adobe Illustrator 26.5.0, SVG Export Plug-In . SVG Version: 6.00 Build 0)  -->
<svg version="1.1" id="Camada_1" xmlns="http://www.w3.org/2000/svg" xmlns:xlink="http://www.w3.org/1999/xlink" x="0px" y="0px"
	 viewBox="0 0 68.77 67.19" style="enable-background:new 0 0 68.77 67.19;" xml:space="preserve">
<style type="text/css">
	.st0{fill:#1B1B1B;}
	.st1{fill:#DBA1AD;}
	.st2{fill:#F9F9F9;}
	.st3{filter:url(#Adobe_OpacityMaskFilter);}
	.st4{fill:#FFFFFF;}
	.st5{filter:url(#Adobe_OpacityMaskFilter_00000006683711739536197330000014985876409178620331_);}
	.st6{fill:#DEC5CB;}
	.st7{fill:#56585D;}
	.st8{fill:#1A1A1A;}
	.st9{filter:url(#Adobe_OpacityMaskFilter_00000133512837017675204700000016680750268395460005_);}
	.st10{fill:none;stroke:#FFFFFF;stroke-miterlimit:10;}
	.st11{fill:#101009;}
	.st12{fill:none;stroke:#101009;stroke-width:1.306;stroke-miterlimit:10;}
	.st13{fill:none;stroke:#101009;stroke-width:1.384;stroke-miterlimit:10;}
	.st14{fill:none;stroke:#101009;stroke-width:1.306;stroke-linecap:round;stroke-miterlimit:10;}
	.st15{fill:#FFFFFF;stroke:#1B1B1B;stroke-miterlimit:10;}
</style>
<g>
	<path class="st1" d="M32.34,66.59C5.4,64.62-8.34,33.06,9.23,12.34C28.45-10.4,65.21,1.97,67.39,31.54v4.12
		c-1.05,16.42-14.51,29.86-30.93,30.93H32.34z"/>
	<path class="st11" d="M50.42,14.77c0.29,0.2,0.37,0.48,0.37,0.83c0,4.14-0.81,8.13-2.17,12.02C46.47,33.73,43,38.99,38.36,43.49
		c-0.38,0.37-0.66,0.36-1.04-0.02c-1.53-1.52-3.05-3.05-4.57-4.57c-0.09-0.09-0.17-0.2-0.29-0.34c-0.45,0.45-0.86,0.86-1.26,1.28
		l-0.05,0.19c0.11,0.32-0.06,0.52-0.26,0.72c-1.97,1.97-3.94,3.94-5.91,5.91c-0.08,0.07-0.15,0.15-0.24,0.21
		c-0.24,0.15-0.48,0.13-0.69-0.06c-0.2-0.19-0.23-0.44-0.09-0.68c0.07-0.12,0.18-0.22,0.28-0.32c1.76-1.76,3.52-3.52,5.28-5.28
		c0.09-0.09,0.2-0.17,0.27-0.22c-0.76-0.76-1.48-1.48-2.21-2.22l-0.19,0.17c-3.06,3.06-6.11,6.12-9.17,9.17
		c-0.47,0.46-0.72,0.99-0.56,1.64c0.28,1.15,1.66,1.56,2.55,0.76c0.54-0.49,1.03-1.02,1.55-1.53c0.08-0.08,0.17-0.17,0.26-0.24
		c0.25-0.17,0.5-0.16,0.72,0.05c0.21,0.21,0.28,0.5,0.06,0.71c-0.78,0.76-1.51,1.6-2.4,2.22c-1.06,0.73-2.48,0.36-3.33-0.66
		c-0.8-0.96-0.79-2.37,0.01-3.36c0.12-0.15,0.25-0.29,0.38-0.42c3.17-3.18,6.35-6.35,9.52-9.53c0.26-0.26,0.5-0.52,0.93-0.33
		l0.21-0.09c0.1-0.08,0.19-0.18,0.28-0.28c7.06-7.06,14.11-14.12,21.17-21.17c0.15-0.15,0.33-0.27,0.49-0.41H50.42z M37.83,42.45
		c7.11-7.15,11.12-15.62,11.83-25.65c-6.95,6.95-13.86,13.86-20.79,20.79c0.23,0.22,0.49,0.46,0.74,0.71
		c0.24,0.26,0.47,0.53,0.71,0.81c0.58-0.58,1.07-1.07,1.57-1.57c0.43-0.42,0.68-0.42,1.11,0.01c1.42,1.41,2.83,2.83,4.24,4.25
		C37.43,41.99,37.61,42.2,37.83,42.45"/>
	<polygon class="st11" points="21.75,48.28 24.35,45.67 25.15,46.47 22.33,49.24 	"/>
</g>
</svg>
