<?xml version="1.0" encoding="utf-8"?>
<!-- Generator: Adobe Illustrator 26.5.0, SVG Export Plug-In . SVG Version: 6.00 Build 0)  -->
<svg version="1.1" id="Camada_1" xmlns="http://www.w3.org/2000/svg" xmlns:xlink="http://www.w3.org/1999/xlink" x="0px" y="0px"
	 viewBox="0 0 68.76 67.19" style="enable-background:new 0 0 68.76 67.19;" xml:space="preserve">
<style type="text/css">
	.st0{fill:#1B1B1B;}
	.st1{fill:#DBA1AD;}
	.st2{fill:#F9F9F9;}
	.st3{filter:url(#Adobe_OpacityMaskFilter);}
	.st4{fill:#FFFFFF;}
	.st5{filter:url(#Adobe_OpacityMaskFilter_00000075156981533358822340000014890354473223746995_);}
	.st6{fill:#DEC5CB;}
	.st7{fill:#56585D;}
	.st8{fill:#1A1A1A;}
	.st9{filter:url(#Adobe_OpacityMaskFilter_00000125577624785580294580000011934213397885467542_);}
	.st10{fill:none;stroke:#FFFFFF;stroke-miterlimit:10;}
	.st11{fill:#101009;}
	.st12{fill:none;stroke:#101009;stroke-width:1.306;stroke-miterlimit:10;}
	.st13{fill:none;stroke:#101009;stroke-width:1.384;stroke-miterlimit:10;}
	.st14{fill:none;stroke:#101009;stroke-width:1.306;stroke-linecap:round;stroke-miterlimit:10;}
	.st15{fill:#FFFFFF;stroke:#1B1B1B;stroke-miterlimit:10;}
</style>
<g>
	<path class="st1" d="M32.32,66.6c-1.21-0.17-2.42-0.3-3.62-0.51c-7.57-1.34-13.9-4.92-19-10.64c-4.43-4.97-7.16-10.79-8-17.4
		C0.46,28.41,2.95,19.78,9.2,12.32c4.84-5.77,10.98-9.55,18.37-10.99c11.74-2.3,21.95,0.83,30.41,9.27
		c5.13,5.12,8.08,11.4,9.1,18.57c0.11,0.78,0.19,1.57,0.29,2.36v4.13c-0.1,0.81-0.19,1.61-0.3,2.42
		c-0.94,6.59-3.59,12.41-8.02,17.38c-5.08,5.7-11.4,9.26-18.93,10.63c-1.22,0.22-2.45,0.34-3.68,0.51H32.32z"/>
	<path class="st12" d="M14.29,37.85c0.23-5.17,1.36-10.07,4.41-14.36c0.95-1.33,2.13-2.43,3.72-2.95c1.16-0.38,2.28-0.36,3.43,0.17
		c2.78,1.3,5.77,1.61,8.79,1.58c3.05-0.03,6-0.5,8.82-1.79c1.27-0.59,2.62-0.21,3.83,0.47c1.55,0.86,2.67,2.16,3.53,3.67
		c2.76,4.82,4.02,10.01,3.5,15.56c-0.09,0.96-0.38,1.94-0.76,2.84c-1.03,2.46-3.15,3.46-5.67,2.59c-1.24-0.43-2.4-1.14-3.51-1.85
		c-0.88-0.56-1.72-1.24-2.42-2.01c-1.18-1.32-2.66-1.9-4.34-2.14c-2.79-0.4-5.57-0.43-8.28,0.45c-0.69,0.22-1.36,0.64-1.9,1.13
		c-1.8,1.63-3.6,3.27-5.89,4.2c-0.64,0.26-1.36,0.41-2.05,0.48c-1.56,0.16-2.81-0.47-3.71-1.74c-1.11-1.55-1.37-3.35-1.5-5.18
		C14.26,38.59,14.29,38.22,14.29,37.85z"/>
	<path class="st13" d="M44.09,28.65c1.87,0,3.35,1.47,3.36,3.34c0.01,1.86-1.49,3.35-3.35,3.34c-1.86,0-3.34-1.5-3.33-3.36
		C40.78,30.12,42.25,28.65,44.09,28.65z"/>
	<line class="st14" x1="24.68" y1="28.2" x2="24.68" y2="35.87"/>
	<line class="st14" x1="20.74" y1="31.99" x2="28.42" y2="31.99"/>
</g>
</svg>
