<?xml version="1.0" encoding="utf-8"?>
<!-- Generator: Adobe Illustrator 26.5.0, SVG Export Plug-In . SVG Version: 6.00 Build 0)  -->
<svg version="1.1" id="Camada_1" xmlns="http://www.w3.org/2000/svg" xmlns:xlink="http://www.w3.org/1999/xlink" x="0px" y="0px"
	 viewBox="0 0 68.76 67.19" style="enable-background:new 0 0 68.76 67.19;" xml:space="preserve">
<style type="text/css">
	.st0{fill:#1B1B1B;}
	.st1{fill:#DBA1AD;}
	.st2{fill:#F9F9F9;}
	.st3{filter:url(#Adobe_OpacityMaskFilter);}
	.st4{fill:#FFFFFF;}
	.st5{filter:url(#Adobe_OpacityMaskFilter_00000149381339356897001710000018238269721336165304_);}
	.st6{fill:#DEC5CB;}
	.st7{fill:#56585D;}
	.st8{fill:#1A1A1A;}
	.st9{filter:url(#Adobe_OpacityMaskFilter_00000164504043054250928160000007000700181658830497_);}
	.st10{fill:none;stroke:#FFFFFF;stroke-miterlimit:10;}
	.st11{fill:#101009;}
	.st12{fill:none;stroke:#101009;stroke-width:1.306;stroke-miterlimit:10;}
	.st13{fill:none;stroke:#101009;stroke-width:1.384;stroke-miterlimit:10;}
	.st14{fill:none;stroke:#101009;stroke-width:1.306;stroke-linecap:round;stroke-miterlimit:10;}
	.st15{fill:#FFFFFF;stroke:#1B1B1B;stroke-miterlimit:10;}
</style>
<g>
	<path class="st1" d="M32.32,66.6c-1.21-0.17-2.42-0.3-3.62-0.51c-7.57-1.34-13.9-4.92-19-10.64c-4.43-4.97-7.16-10.79-8-17.4
		C0.46,28.41,2.95,19.78,9.2,12.32c4.84-5.77,10.98-9.55,18.37-10.99c11.74-2.3,21.95,0.83,30.41,9.27
		c5.13,5.12,8.08,11.4,9.1,18.57c0.11,0.78,0.19,1.57,0.29,2.36v4.13c-0.1,0.81-0.19,1.61-0.3,2.42
		c-0.94,6.59-3.59,12.41-8.02,17.38c-5.08,5.7-11.4,9.26-18.93,10.63c-1.22,0.22-2.45,0.34-3.68,0.51H32.32z"/>
	<polygon class="st12" points="17.23,18.13 28.84,38.47 36.46,39.91 38.93,37.59 37.57,29.98 	"/>
	<polyline class="st12" points="43.4,46.71 36.53,39.84 38.93,37.59 45.72,44.39 	"/>
	<circle class="st12" cx="47.31" cy="48.3" r="4.22"/>
</g>
</svg>
