<?xml version="1.0" encoding="utf-8"?>
<!-- Generator: Adobe Illustrator 26.5.0, SVG Export Plug-In . SVG Version: 6.00 Build 0)  -->
<svg version="1.1" id="Camada_1" xmlns="http://www.w3.org/2000/svg" xmlns:xlink="http://www.w3.org/1999/xlink" x="0px" y="0px"
	 viewBox="0 0 68.77 67.19" style="enable-background:new 0 0 68.77 67.19;" xml:space="preserve">
<style type="text/css">
	.st0{fill:#1B1B1B;}
	.st1{fill:#DBA1AD;}
	.st2{fill:#F9F9F9;}
	.st3{filter:url(#Adobe_OpacityMaskFilter);}
	.st4{fill:#FFFFFF;}
	.st5{filter:url(#Adobe_OpacityMaskFilter_00000004523988398242143470000008477574537819974586_);}
	.st6{fill:#DEC5CB;}
	.st7{fill:#56585D;}
	.st8{fill:#1A1A1A;}
	.st9{filter:url(#Adobe_OpacityMaskFilter_00000084514191718399078810000018188785081756333495_);}
	.st10{fill:none;stroke:#FFFFFF;stroke-miterlimit:10;}
	.st11{fill:#101009;}
	.st12{fill:none;stroke:#101009;stroke-width:1.306;stroke-miterlimit:10;}
	.st13{fill:none;stroke:#101009;stroke-width:1.384;stroke-miterlimit:10;}
	.st14{fill:none;stroke:#101009;stroke-width:1.306;stroke-linecap:round;stroke-miterlimit:10;}
	.st15{fill:#FFFFFF;stroke:#1B1B1B;stroke-miterlimit:10;}
</style>
<g>
	<path class="st1" d="M32.32,66.6c-1.21-0.17-2.42-0.3-3.62-0.51c-7.57-1.34-13.9-4.92-19-10.64c-4.43-4.97-7.16-10.79-8-17.4
		C0.46,28.41,2.95,19.78,9.2,12.32c4.84-5.77,10.98-9.55,18.37-10.99c11.74-2.3,21.95,0.83,30.41,9.27
		c5.13,5.12,8.08,11.4,9.1,18.57c0.11,0.78,0.19,1.57,0.29,2.36v4.13c-0.1,0.81-0.19,1.61-0.3,2.42
		c-0.94,6.59-3.59,12.41-8.02,17.38c-5.08,5.7-11.4,9.26-18.93,10.63c-1.22,0.22-2.45,0.34-3.68,0.51H32.32z"/>
	<path class="st11" d="M45.13,15.32c0.26,0.18,0.35,0.43,0.34,0.74c-0.02,0.6,0,1.2,0,1.83C46,17.72,46.5,17.55,47,17.39
		c0.36-0.12,0.73-0.22,1.09-0.33c0.31-0.09,0.55-0.02,0.78,0.22c0.51,0.52,1.04,1.01,1.59,1.55c0.09-0.05,0.21-0.12,0.35-0.18
		c0.79-0.38,1.68,0.12,1.76,0.99c0.01,0.13,0.01,0.25,0.01,0.38c0,5.04,0,15.92,0,20.96c0,0.13,0,0.26-0.01,0.38
		c-0.04,0.29-0.23,0.46-0.52,0.45c-0.27,0-0.45-0.17-0.49-0.45c-0.02-0.15-0.02-0.3-0.02-0.45c0-4.99,0-15.83,0-20.82
		c0-0.12,0.01-0.23-0.01-0.35c-0.02-0.18-0.12-0.25-0.29-0.16c-0.09,0.05-0.18,0.1-0.27,0.15c-4.24,2.38-8.47,4.77-12.71,7.14
		c-0.36,0.2-0.49,0.42-0.48,0.83c0.01,6.98,0.01,13.96,0.01,20.94c0,0.09,0,0.19,0,0.28c0.01,0.36,0.1,0.42,0.41,0.24
		c1.02-0.57,2.04-1.14,3.05-1.71c3.31-1.86,6.62-3.73,9.93-5.58c0.27-0.15,0.38-0.31,0.37-0.62c-0.02-0.8-0.01-1.59,0-2.39
		c0-0.39,0.2-0.6,0.52-0.59c0.29,0,0.5,0.19,0.51,0.5c0.01,0.96,0.01,1.92-0.01,2.88c-0.01,0.5-0.32,0.82-0.74,1.05
		c-1.91,1.07-3.82,2.15-5.73,3.22c-2.44,1.38-4.89,2.75-7.33,4.13c-0.33,0.18-0.66,0.33-1.05,0.25l-0.22,0.1
		c-0.28,0.3-0.62,0.42-1.03,0.41c-1.02-0.01-2.03-0.01-3.05,0c-0.4,0-0.74-0.12-1.03-0.41c-0.06-0.06-0.17-0.08-0.26-0.1
		c-0.31-0.07-0.66-0.07-0.92-0.21c-4.41-2.46-8.82-4.95-13.22-7.42c-0.46-0.26-0.68-0.64-0.69-1.16c0-0.43,0-0.85,0-1.28
		c0-6.76,0-13.52,0-20.28c0-0.82,0.38-1.37,1.07-1.41c0.36-0.02,0.73,0.14,1.12,0.23c0.43-0.41,0.94-0.87,1.4-1.37
		c0.31-0.34,0.63-0.45,1.07-0.29c0.79,0.27,1.6,0.5,2.46,0.77c0-0.6,0.01-1.19,0-1.78c-0.01-0.32,0.06-0.59,0.34-0.78h0.35
		c0.46,0.21,0.93,0.4,1.39,0.62c3.26,1.56,5.9,3.8,7.63,7.02c0.3,0.56,0.55,1.15,0.84,1.77l0.08-0.17c1.34-3.4,3.67-5.94,6.79-7.77
		c0.95-0.56,1.97-0.99,2.97-1.48H45.13z M32.09,38.22c0-3.55,0-7.09,0.01-10.64c0-0.31-0.09-0.47-0.36-0.63
		c-3.67-2.05-7.33-4.11-10.99-6.17c-0.66-0.37-1.33-0.75-1.99-1.12c-0.34-0.19-0.41-0.14-0.42,0.26v0.1c0,7.08,0,14.16-0.01,21.24
		c0,0.31,0.1,0.47,0.37,0.62c4.3,2.41,8.59,4.83,12.89,7.24c0.43,0.24,0.51,0.19,0.51-0.31C32.09,45.28,32.09,41.75,32.09,38.22
		 M20.35,19.35c0.18,0.11,0.29,0.18,0.4,0.24c3.77,2.12,7.55,4.23,11.31,6.38c0.65,0.37,1.29,0.42,2.02,0.34
		c-0.05-0.1-0.09-0.18-0.14-0.25c-0.63-0.75-1.22-1.54-1.91-2.24c-0.65-0.65-1.4-1.21-2.11-1.8c-0.3-0.25-0.37-0.51-0.19-0.77
		c0.2-0.28,0.47-0.3,0.81-0.06c0.14,0.1,0.28,0.2,0.42,0.31c0.72,0.61,1.43,1.22,2.2,1.88c-1.79-3.19-4.43-5.31-7.72-6.77
		c0,0.52,0.01,0.98,0,1.44c-0.01,0.2,0.06,0.3,0.25,0.39c0.62,0.28,1.23,0.58,1.84,0.88c0.28,0.14,0.36,0.41,0.23,0.67
		c-0.13,0.27-0.4,0.37-0.7,0.25c-0.12-0.05-0.23-0.11-0.34-0.17c-1.54-0.78-3.13-1.41-4.79-1.89c-0.12-0.03-0.3-0.05-0.38,0.02
		C21.16,18.57,20.78,18.95,20.35,19.35 M33.16,45.04h3.57V32.11h-3.57V45.04z M35.75,26.27c0.92,0.2,1.62-0.05,2.33-0.46
		c2.91-1.67,5.85-3.3,8.78-4.95c0.86-0.49,1.73-0.97,2.69-1.52c-0.4-0.37-0.77-0.68-1.1-1.03c-0.17-0.18-0.32-0.21-0.54-0.13
		c-1.21,0.45-2.45,0.84-3.63,1.35c-2.69,1.18-5.12,2.77-7.11,4.96C36.68,25.06,36.24,25.67,35.75,26.27 M44.43,16.62
		c-3.3,1.47-5.94,3.58-7.66,6.73c0.53-0.44,1.02-0.92,1.55-1.35c1.76-1.46,3.72-2.6,5.81-3.53c0.12-0.05,0.29-0.2,0.29-0.31
		C44.45,17.67,44.43,17.17,44.43,16.62 M33.13,28.73h3.62c0-0.38,0.02-0.74-0.01-1.1c-0.01-0.09-0.15-0.24-0.23-0.24
		c-1.04-0.02-2.07-0.02-3.11,0c-0.09,0-0.24,0.14-0.25,0.23C33.12,27.98,33.13,28.35,33.13,28.73 M36.75,48.42h-3.62
		c0,0.38,0,0.74,0,1.09c0,0.19,0.08,0.27,0.27,0.27c1.03,0,2.05,0,3.08,0c0.19,0,0.27-0.08,0.27-0.27
		C36.75,49.15,36.75,48.8,36.75,48.42 M33.15,31.04h3.58v-1.23h-3.58V31.04z M33.14,47.33h3.58v-1.21h-3.58V47.33z"/>
</g>
</svg>
