<?xml version="1.0" encoding="utf-8"?>
<!-- Generator: Adobe Illustrator 26.5.0, SVG Export Plug-In . SVG Version: 6.00 Build 0)  -->
<svg version="1.1" id="Camada_1" xmlns="http://www.w3.org/2000/svg" xmlns:xlink="http://www.w3.org/1999/xlink" x="0px" y="0px"
	 viewBox="0 0 68.76 67.19" style="enable-background:new 0 0 68.76 67.19;" xml:space="preserve">
<style type="text/css">
	.st0{fill:#1B1B1B;}
	.st1{fill:#DBA1AD;}
	.st2{fill:#F9F9F9;}
	.st3{filter:url(#Adobe_OpacityMaskFilter);}
	.st4{fill:#FFFFFF;}
	.st5{filter:url(#Adobe_OpacityMaskFilter_00000013890306919519273170000005140348800637774249_);}
	.st6{fill:#DEC5CB;}
	.st7{fill:#56585D;}
	.st8{fill:#1A1A1A;}
	.st9{filter:url(#Adobe_OpacityMaskFilter_00000102503081727363199490000014882831463999861433_);}
	.st10{fill:none;stroke:#FFFFFF;stroke-miterlimit:10;}
	.st11{fill:#101009;}
	.st12{fill:none;stroke:#101009;stroke-width:1.306;stroke-miterlimit:10;}
	.st13{fill:none;stroke:#101009;stroke-width:1.384;stroke-miterlimit:10;}
	.st14{fill:none;stroke:#101009;stroke-width:1.306;stroke-linecap:round;stroke-miterlimit:10;}
	.st15{fill:#FFFFFF;stroke:#1B1B1B;stroke-miterlimit:10;}
</style>
<rect x="10.25" y="5.77" class="st0" width="51.15" height="51.15"/>
<path class="st1" d="M0,56.68V10.51c0.05-0.2,0.09-0.39,0.13-0.59C1.46,3.91,6.3,0.01,12.45,0.01c14.69,0,29.39-0.01,44.08,0
	c6.82,0.01,12.23,5.44,12.23,12.25c0.01,14.22,0.01,28.45,0,42.67c0,6.78-5.4,12.24-12.16,12.25c-14.83,0.02-29.66,0.02-44.48-0.01
	c-3.5-0.01-6.48-1.35-8.9-3.9C1.45,61.41,0.48,59.16,0,56.68 M50.55,29.63c0-4.63,0-9.25,0-13.88c0-0.84-0.05-0.89-0.86-0.89
	c-1.5,0-3,0-4.49,0c-0.81,0-0.86,0.05-0.86,0.89c0,2.57-0.01,5.14,0,7.71c0,0.51-0.12,0.84-0.71,0.74c-1.3-0.2-2.59-0.02-3.87,0.19
	c-3.97,0.66-7,2.68-8.94,6.25c-1.22,2.25-1.4,4.66-1.26,7.16c0.24,4.21,2.84,7.81,6.83,9.16c4.7,1.58,9.3,0.88,13.83-0.79
	c0.41-0.15,0.49-0.46,0.48-0.85c-0.03-1.18-0.16-2.36-0.15-3.55C50.57,37.72,50.55,33.67,50.55,29.63 M18.68,32.38
	c0,4.69,0,9.39,0,14.08c0,0.86,0.06,0.91,0.91,0.92c1.47,0,2.95-0.02,4.42,0.01c0.61,0.01,0.89-0.19,0.89-0.84
	c-0.01-9.45-0.01-18.9,0-28.36c0-0.62-0.26-0.83-0.85-0.83c-1.45,0.02-2.9,0-4.36,0.01c-1,0-1.03,0.03-1.03,1.01
	C18.68,23.03,18.68,27.7,18.68,32.38"/>
<path class="st1" d="M44.33,35.92c0,1.88-0.01,3.75,0.01,5.63c0.01,0.56-0.19,0.78-0.76,0.84c-1.26,0.13-2.49,0.12-3.72-0.24
	c-2.47-0.72-3.53-2.56-3.93-4.92c-0.16-0.96-0.13-1.92,0.05-2.87c0.48-2.59,2.72-4.63,5.4-4.97c0.73-0.09,1.46-0.11,2.2-0.02
	c0.55,0.07,0.77,0.28,0.77,0.85C44.32,32.12,44.33,34.02,44.33,35.92"/>
</svg>
