<?xml version="1.0" encoding="utf-8"?>
<svg version="1.1" id="Camada_1" xmlns="http://www.w3.org/2000/svg" xmlns:xlink="http://www.w3.org/1999/xlink" x="0px" y="0px"
	 viewBox="0 0 75.68 61.01" style="enable-background:new 0 0 75.68 61.01;" xml:space="preserve">
<style type="text/css">
	.st0{fill:#1B1B1B;}
	.st1{fill:#DBA1AD;}
	.st2{fill:#F9F9F9;}
	.st3{filter:url(#Adobe_OpacityMaskFilter);}
	.st4{fill:#FFFFFF;}
	.st5{filter:url(#Adobe_OpacityMaskFilter_00000016074543777843238320000010283603042911332752_);}
	.st6{fill:#DEC5CB;}
	.st7{fill:#56585D;}
	.st8{fill:#1A1A1A;}
	.st9{filter:url(#Adobe_OpacityMaskFilter_00000051352364604435677910000012646118131488204219_);}
	.st10{fill:none;stroke:#FFFFFF;stroke-miterlimit:10;}
	.st11{fill:#101009;}
	.st12{fill:none;stroke:#101009;stroke-width:1.306;stroke-miterlimit:10;}
	.st13{fill:none;stroke:#101009;stroke-width:1.384;stroke-miterlimit:10;}
	.st14{fill:none;stroke:#101009;stroke-width:1.306;stroke-linecap:round;stroke-miterlimit:10;}
	.st15{fill:#FFFFFF;stroke:#1B1B1B;stroke-miterlimit:10;}
	.st16{filter:url(#Adobe_OpacityMaskFilter_00000013162820692942729790000004621836535190785214_);}
</style>
<rect class="st1" width="75.68" height="61.01"/>
<g>
	<path class="st0" d="M45.43,50.82c1.18,8.11-3.76,4.42-9.29,5.19c-2.53-1.07-0.5-6.67-1.12-9.17c0.52-2.73,6.82-0.68,9.12-1.28
		C46.51,45.68,45.04,49.25,45.43,50.82z"/>
	<path class="st0" d="M22.37,50.78c-1.22-8.05,3.84-4.49,9.29-5.2c2.49,0.88,0.53,6.88,1.12,9.27c-0.74,2.56-6.87,0.57-9.22,1.17
		C21.31,55.81,22.75,52.32,22.37,50.78z"/>
	<path class="st0" d="M27.55,43.36c-8.11,1.18-4.41-3.76-5.18-9.28c0.85-2.5,6.91-0.53,9.3-1.12c2.48,0.85,0.52,6.91,1.11,9.3
		C32.48,44.38,29.08,42.97,27.55,43.36z"/>
	<path class="st0" d="M58.08,38.2c1.23,8.03-3.9,4.41-9.31,5.16c-2.46-0.91-0.51-6.91-1.09-9.32c0.91-2.44,6.92-0.5,9.33-1.08
		C59.1,33.29,57.7,36.66,58.08,38.2z"/>
	<path class="st0" d="M52.89,7.65c8.12-1.17,4.43,3.74,5.2,9.28c-0.83,2.52-6.93,0.54-9.33,1.13c-2.42-0.93-0.49-6.89-1.07-9.29
		C47.95,6.62,51.36,8.03,52.89,7.65z"/>
	<path class="st0" d="M35.03,12.82c-1.17-8.09,3.73-4.41,9.25-5.17c2.55,0.77,0.56,6.89,1.15,9.26c-0.76,2.54-6.9,0.56-9.27,1.15
		C33.98,17.81,35.42,14.36,35.03,12.82z"/>
	<path class="st0" d="M27.61,20.3c1.52,0.38,4.89-1.02,5.17,1.1c-0.58,2.39,1.38,8.45-1.12,9.3c-2.39-0.59-8.45,1.38-9.29-1.13
		C23.14,23.97,19.43,19.14,27.61,20.3z"/>
	<path class="st0" d="M35.03,38.16c0.38-1.53-1.03-4.93,1.11-5.21c2.39,0.58,8.45-1.38,9.3,1.12c-0.59,2.39,1.38,8.46-1.13,9.28
		C38.75,42.58,33.85,46.28,35.03,38.16z"/>
	<path class="st0" d="M40.23,30.7c-1.53-0.38-5,1.05-5.2-1.16c0.59-2.37-1.37-8.43,1.13-9.24c2.38,0.59,8.47-1.39,9.27,1.14
		C44.64,27.08,48.39,31.84,40.23,30.7z"/>
	<path class="st0" d="M27.57,18.62C20.06,18.73,20.1,6.95,27.6,7.08C35.05,6.99,35.07,18.76,27.57,18.62z"/>
</g>
</svg>
