<?xml version="1.0" encoding="utf-8"?>
<!-- Generator: Adobe Illustrator 26.5.0, SVG Export Plug-In . SVG Version: 6.00 Build 0)  -->
<svg version="1.1" id="Camada_1" xmlns="http://www.w3.org/2000/svg" xmlns:xlink="http://www.w3.org/1999/xlink" x="0px" y="0px"
	 viewBox="0 0 180 67" style="enable-background:new 0 0 180 67;" xml:space="preserve">
<style type="text/css">
	.st0{fill:#1B1B1B;}
	.st1{fill:#DBA1AD;}
	.st2{fill:#F9F9F9;}
	.st3{filter:url(#Adobe_OpacityMaskFilter);}
	.st4{fill:#FFFFFF;}
	.st5{filter:url(#Adobe_OpacityMaskFilter_00000081634592887971460270000016337833044289662131_);}
	.st6{fill:#DEC5CB;}
	.st7{fill:#56585D;}
	.st8{fill:#1A1A1A;}
	.st9{filter:url(#Adobe_OpacityMaskFilter_00000086691025221935973840000002872660802046134937_);}
	.st10{fill:none;stroke:#FFFFFF;stroke-miterlimit:10;}
	.st11{fill:#101009;}
	.st12{fill:none;stroke:#101009;stroke-width:1.306;stroke-miterlimit:10;}
	.st13{fill:none;stroke:#101009;stroke-width:1.384;stroke-miterlimit:10;}
	.st14{fill:none;stroke:#101009;stroke-width:1.306;stroke-linecap:round;stroke-miterlimit:10;}
	.st15{fill:#FFFFFF;stroke:#1B1B1B;stroke-miterlimit:10;}
	.st16{filter:url(#Adobe_OpacityMaskFilter_00000037677519208946183670000017926941206490022018_);}
</style>
<g>
	<path class="st4" d="M42.34,63.67c-2.9,0.63-5.9,0.95-8.98,0.95s-6.07-0.32-8.98-0.95c-2.91-0.63-5.73-1.69-8.47-3.16
		c-2.74-1.47-5.13-3.3-7.15-5.47c-2.03-2.17-3.65-4.92-4.88-8.23c-1.23-3.31-1.84-7-1.84-11.08c0-4.08,0.61-7.77,1.84-11.08
		c1.23-3.31,2.86-6.05,4.88-8.23c2.03-2.17,4.41-4,7.15-5.47s5.57-2.53,8.47-3.16c2.9-0.63,5.9-0.95,8.98-0.95s6.07,0.32,8.98,0.95
		s5.72,1.69,8.45,3.16c2.73,1.47,5.11,3.3,7.13,5.47c2.03,2.18,3.65,4.92,4.88,8.23c1.23,3.31,1.84,7,1.84,11.08
		c0,4.08-0.62,7.77-1.84,11.08c-1.23,3.31-2.86,6.05-4.88,8.23s-4.4,4-7.13,5.47C48.06,61.98,45.24,63.04,42.34,63.67z M31.8,62.7
		c0.39,0.07,0.91,0.1,1.56,0.1s1.17-0.03,1.56-0.1c0.39-0.07,0.87-0.28,1.44-0.65c0.57-0.36,1.03-0.88,1.38-1.56
		c0.35-0.67,0.73-1.67,1.13-3c0.41-1.32,0.72-2.93,0.93-4.82c0.22-1.89,0.4-4.27,0.55-7.13c0.15-2.86,0.22-6.13,0.22-9.81
		c0-3.67-0.08-6.94-0.22-9.81c-0.15-2.86-0.33-5.24-0.55-7.13c-0.22-1.89-0.53-3.49-0.93-4.8c-0.41-1.31-0.78-2.3-1.13-2.98
		c-0.35-0.67-0.81-1.2-1.38-1.56c-0.57-0.36-1.05-0.58-1.44-0.65c-0.39-0.07-0.91-0.1-1.56-0.1s-1.17,0.03-1.56,0.1
		c-0.39,0.07-0.88,0.28-1.46,0.65c-0.58,0.37-1.04,0.89-1.38,1.56c-0.34,0.68-0.71,1.67-1.11,2.98c-0.41,1.31-0.72,2.91-0.95,4.8
		c-0.23,1.89-0.42,4.27-0.57,7.13c-0.15,2.86-0.22,6.13-0.22,9.81c0,3.67,0.07,6.94,0.22,9.81c0.15,2.86,0.34,5.24,0.57,7.13
		c0.23,1.89,0.54,3.5,0.93,4.82c0.39,1.32,0.76,2.32,1.12,3c0.35,0.68,0.82,1.2,1.4,1.56C30.92,62.42,31.41,62.63,31.8,62.7z"/>
	<path class="st4" d="M68.14,62.11l1.74-0.16c0.67-0.08,1.15-0.15,1.42-0.2c0.27-0.05,0.53-0.2,0.77-0.45s0.36-0.61,0.36-1.09V6.43
		c0-0.67-0.61-1.05-1.82-1.13l-2.47-0.2V3.87h9.69c6.51,0,11.6-0.47,15.28-1.42l0.32-0.08c-0.16,2.32-0.24,5.09-0.24,8.31v49.52
		c0,0.65,0.19,1.08,0.57,1.3c0.38,0.22,1.05,0.36,2.03,0.45l1.74,0.16v1.18c-3.95-0.22-8.85-0.32-14.71-0.32
		c-2.59,0-5.11,0.03-7.56,0.08c-2.45,0.05-4.24,0.11-5.37,0.16l-1.74,0.08V62.11z"/>
	<path class="st4" d="M111.86,64.62c-3.57,0-6.38-0.85-8.45-2.55c-2.07-1.7-3.1-4.01-3.1-6.93c0-1.81,0.3-3.36,0.89-4.66
		c0.59-1.3,1.56-2.4,2.9-3.32c1.34-0.92,2.86-1.69,4.56-2.31c1.7-0.62,3.9-1.26,6.61-1.9c1.35-0.32,2.44-0.61,3.26-0.85
		c0.82-0.24,1.71-0.56,2.67-0.95c0.96-0.39,1.71-0.82,2.27-1.28c0.55-0.46,1.08-1.03,1.58-1.7c0.5-0.67,0.86-1.47,1.07-2.37
		c0.22-0.9,0.32-1.95,0.32-3.14c0-2.94-0.81-5.07-2.43-6.38s-4.16-1.97-7.62-1.97c-3.54,0-6.47,0.88-8.79,2.63
		c1.13-0.27,2.16-0.41,3.08-0.41c2.35,0,4.34,0.63,5.96,1.88c1.62,1.26,2.43,3.14,2.43,5.65s-0.82,4.4-2.45,5.67
		c-1.63,1.27-3.61,1.9-5.94,1.9c-2.32,0-4.3-0.63-5.94-1.9c-1.64-1.27-2.45-3.16-2.45-5.67c0-3.92,1.77-6.92,5.31-9
		c3.54-2.08,8.55-3.12,15.04-3.12c2.97,0,5.61,0.15,7.92,0.45c2.31,0.3,4.48,0.82,6.5,1.58c2.03,0.76,3.71,1.76,5.05,3
		c1.34,1.24,2.38,2.84,3.14,4.78c0.76,1.95,1.13,4.21,1.13,6.81v18.6c0,1.08,0.16,1.83,0.47,2.25c0.31,0.42,0.76,0.63,1.36,0.63
		c0.92,0,1.68-0.55,2.27-1.66c0.59-1.11,0.95-2.21,1.05-3.32l1.38,0.16c-0.78,6.27-4.93,9.4-12.44,9.4
		c-7.78,0-12.12-3.32-13.01-9.97C126.17,61.3,120.97,64.62,111.86,64.62z M111.86,17.82c1.95-1,3.82-2.22,5.63-3.67
		c1.81-1.44,3.28-2.76,4.4-3.93c1.12-1.18,2.34-2.32,3.65-3.45c1.31-1.12,2.53-1.92,3.67-2.41c0.81-0.32,1.66-0.49,2.55-0.49
		c1.67,0,3.05,0.54,4.13,1.62c1.08,1.08,1.62,2.45,1.62,4.09c0,1.13-0.3,2.18-0.91,3.12c-0.61,0.95-1.47,1.65-2.57,2.11
		c-1.43,0.57-3.33,0.95-5.69,1.13c-2.37,0.19-4.98,0.46-7.84,0.81c-2.86,0.35-5.61,1.03-8.23,2.03L111.86,17.82z M122,59.15
		c1.19,0,2.23-0.71,3.12-2.13c0.89-1.42,1.34-3.73,1.34-6.95V38.65c-0.59,1.16-1.68,2.32-3.24,3.49c-2.03,1.51-3.38,2.99-4.05,4.42
		c-0.68,1.43-1.01,3.58-1.01,6.44c0,2.3,0.33,3.9,0.99,4.8S120.75,59.15,122,59.15z"/>
	<path class="st4" d="M164.79,43.47c0-2.19-0.39-4.31-1.17-6.36c-0.78-2.05-1.73-3.87-2.84-5.45c-1.11-1.58-2.22-3.14-3.34-4.68
		c-1.12-1.54-2.07-3.21-2.86-5c-0.78-1.8-1.17-3.63-1.17-5.49c0-3.38,1.14-6.04,3.42-8c2.28-1.96,5.23-2.94,8.86-2.94
		c3.62,0,6.57,0.98,8.86,2.94c2.28,1.96,3.42,4.63,3.42,8c0,1.86-0.39,3.69-1.17,5.49c-0.78,1.8-1.73,3.46-2.84,5
		c-1.11,1.54-2.22,3.1-3.32,4.68c-1.11,1.58-2.05,3.4-2.84,5.45c-0.78,2.05-1.18,4.17-1.18,6.36H164.79z"/>
	<path class="st1" d="M158.37,61.87c-1.93-1.84-2.9-4.16-2.9-6.97c0-2.81,0.97-5.13,2.92-6.95c1.95-1.82,4.38-2.74,7.29-2.74
		c2.86,0,5.31,0.97,7.34,2.92c2.03,1.95,3.04,4.28,3.04,7.01c0,2.78-1.01,5.06-3.02,6.83c-2.01,1.77-4.46,2.65-7.36,2.65
		C162.74,64.62,160.3,63.71,158.37,61.87z"/>
</g>
</svg>
