<?xml version="1.0" encoding="utf-8"?>
<!-- Generator: Adobe Illustrator 26.5.0, SVG Export Plug-In . SVG Version: 6.00 Build 0)  -->
<svg version="1.1" id="Camada_1" xmlns="http://www.w3.org/2000/svg" xmlns:xlink="http://www.w3.org/1999/xlink" x="0px" y="0px"
	 viewBox="0 0 68.77 67.19" style="enable-background:new 0 0 68.77 67.19;" xml:space="preserve">
<style type="text/css">
	.st0{fill:#1B1B1B;}
	.st1{fill:#DBA1AD;}
	.st2{fill:#F9F9F9;}
	.st3{filter:url(#Adobe_OpacityMaskFilter);}
	.st4{fill:#FFFFFF;}
	.st5{filter:url(#Adobe_OpacityMaskFilter_00000020393150878365017190000005885563212580072376_);}
	.st6{fill:#DEC5CB;}
	.st7{fill:#56585D;}
	.st8{fill:#1A1A1A;}
	.st9{filter:url(#Adobe_OpacityMaskFilter_00000050624224137076331040000007701204996174054288_);}
	.st10{fill:none;stroke:#FFFFFF;stroke-miterlimit:10;}
	.st11{fill:#101009;}
	.st12{fill:none;stroke:#101009;stroke-width:1.306;stroke-miterlimit:10;}
	.st13{fill:none;stroke:#101009;stroke-width:1.384;stroke-miterlimit:10;}
	.st14{fill:none;stroke:#101009;stroke-width:1.306;stroke-linecap:round;stroke-miterlimit:10;}
	.st15{fill:#FFFFFF;stroke:#1B1B1B;stroke-miterlimit:10;}
</style>
<rect x="9.13" y="5.77" class="st0" width="51.15" height="51.15"/>
<path class="st1" d="M0,56.67V10.51c0.03-0.11,0.06-0.21,0.09-0.32C1.47,3.81,6.19,0,12.72,0c14.45,0,28.89,0,43.34,0
	c0.65,0,1.29,0.03,1.94,0.11c6.15,0.73,10.76,5.88,10.76,12.08c0.01,14.27,0.01,28.54,0,42.8c0,6.69-5.41,12.17-12.1,12.18
	c-14.87,0.03-29.74,0.03-44.62-0.01c-3.42-0.01-6.35-1.33-8.74-3.79C1.49,61.49,0.48,59.21,0,56.67 M16.41,32.37
	c0,4.72,0.01,9.44-0.01,14.15c0,0.64,0.21,0.87,0.86,0.85c1.27-0.04,2.55-0.01,3.82-0.01c1.34,0,1.34,0,1.34-1.32
	c0-2.48,0-4.96,0.01-7.45c0-0.78,0.12-0.89,0.84-0.83c1.84,0.15,3.66,0.06,5.48-0.22c5.58-0.87,8.76-4.33,9.1-9.09
	c0.29-4.17-1.35-7.74-5.08-9.73c-2.02-1.08-4.2-1.47-6.47-1.5c-3-0.03-5.99,0.07-8.98,0.14c-0.91,0.02-0.92,0.02-0.92,0.96
	C16.41,23.02,16.41,27.7,16.41,32.37 M41.99,35.68c0,4.01,0,7.39,0,10.76c0,0.83,0.1,0.92,0.93,0.92c1.45,0,2.9,0,4.36,0
	c0.96,0,0.99-0.03,0.99-0.97c0-4.22,0.06-8.45-0.03-12.67c-0.03-1.28,0.49-1.96,1.55-2.41c0.27-0.11,0.54-0.22,0.81-0.32
	c1.38-0.51,2.81-0.72,4.27-0.76c0.55-0.02,0.82-0.17,0.81-0.77c-0.03-1.54-0.02-3.08-0.01-4.63c0-0.5-0.17-0.75-0.7-0.73
	c-0.56,0.01-1.11,0.1-1.66,0.23c-1.9,0.45-3.49,1.46-4.86,2.82c-0.12,0.12-0.23,0.33-0.43,0.27c-0.22-0.07-0.13-0.3-0.16-0.47
	c-0.09-0.55-0.17-1.1-0.27-1.65c-0.08-0.46-0.35-0.7-0.83-0.7c-1.45,0-2.91,0-4.36,0c-0.46,0-0.65,0.22-0.61,0.67
	c0.04,0.51,0.1,1.02,0.11,1.54C41.92,29.97,42.05,33.14,41.99,35.68"/>
<path class="st1" d="M24.66,22.7c1.47-0.06,2.69-0.01,3.88,0.37c2.1,0.67,3.26,2.22,3.28,4.38c0.01,2.32-1.12,3.87-3.27,4.59
	c-1.8,0.6-3.65,0.53-5.5,0.51c-0.39-0.01-0.55-0.2-0.55-0.59c0-2.88,0.01-5.76,0-8.64c0-0.43,0.19-0.62,0.6-0.62
	C23.7,22.7,24.3,22.7,24.66,22.7"/>
</svg>
