<?xml version="1.0" encoding="utf-8"?>
<!-- Generator: Adobe Illustrator 26.5.0, SVG Export Plug-In . SVG Version: 6.00 Build 0)  -->
<svg version="1.1" id="Camada_1" xmlns="http://www.w3.org/2000/svg" xmlns:xlink="http://www.w3.org/1999/xlink" x="0px" y="0px"
	 viewBox="0 0 68.77 67.19" style="enable-background:new 0 0 68.77 67.19;" xml:space="preserve">
<style type="text/css">
	.st0{fill:#1B1B1B;}
	.st1{fill:#DBA1AD;}
	.st2{fill:#F9F9F9;}
	.st3{filter:url(#Adobe_OpacityMaskFilter);}
	.st4{fill:#FFFFFF;}
	.st5{filter:url(#Adobe_OpacityMaskFilter_00000161623157408771775170000006504257517363058327_);}
	.st6{fill:#DEC5CB;}
	.st7{fill:#56585D;}
	.st8{fill:#1A1A1A;}
	.st9{filter:url(#Adobe_OpacityMaskFilter_00000131341805523034600150000008086905835132542105_);}
	.st10{fill:none;stroke:#FFFFFF;stroke-miterlimit:10;}
	.st11{fill:#101009;}
	.st12{fill:none;stroke:#101009;stroke-width:1.306;stroke-miterlimit:10;}
	.st13{fill:none;stroke:#101009;stroke-width:1.384;stroke-miterlimit:10;}
	.st14{fill:none;stroke:#101009;stroke-width:1.306;stroke-linecap:round;stroke-miterlimit:10;}
	.st15{fill:#FFFFFF;stroke:#1B1B1B;stroke-miterlimit:10;}
</style>
<rect x="8" y="4.14" class="st0" width="51.15" height="51.15"/>
<path class="st1" d="M0,56.68V10.51c0.05-0.2,0.09-0.39,0.14-0.59C1.46,3.91,6.3,0.01,12.45,0.01c14.69,0,29.39-0.01,44.08,0
	c6.82,0.01,12.23,5.44,12.23,12.25c0.01,14.22,0.01,28.45,0,42.67c0,6.78-5.39,12.24-12.16,12.25c-14.83,0.02-29.65,0.02-44.48-0.01
	c-3.5-0.01-6.48-1.35-8.9-3.9C1.45,61.41,0.48,59.16,0,56.68 M15.57,32.34c0,4.69,0,9.39,0,14.09c0,0.9,0.05,0.94,0.96,0.94
	c1.36,0,2.73,0,4.09,0c0.92,0,0.95-0.04,0.95-0.94c0-2.62,0-5.23,0.01-7.85c0-0.74,0.13-0.86,0.87-0.8
	c1.88,0.15,3.76,0.07,5.61-0.22c2.86-0.45,5.34-1.6,7.12-3.98c1.49-2,1.93-4.3,1.81-6.72c-0.18-3.6-1.78-6.37-5-8.09
	c-1.97-1.06-4.11-1.46-6.33-1.5c-3.02-0.05-6.03,0.03-9.05,0.13c-1.02,0.04-1.04,0.03-1.04,1.07
	C15.57,23.08,15.57,27.71,15.57,32.34 M40.28,43.83c0,0.58,0.05,1.17-0.01,1.74c-0.08,0.78,0.24,1.18,0.97,1.43
	c2.65,0.94,5.37,1.08,8.14,0.84c1.35-0.12,2.64-0.48,3.83-1.15c2.18-1.21,3.38-3.07,3.52-5.57c0.14-2.6-1.01-4.51-3.24-5.81
	c-1.16-0.68-2.37-1.24-3.63-1.73c-1.12-0.44-2.29-0.81-3.2-1.65c-0.91-0.84-0.62-2.02,0.55-2.41c0.53-0.17,1.09-0.27,1.65-0.26
	c1.98,0.05,3.91,0.34,5.74,1.17c0.73,0.33,0.92,0.2,0.93-0.6c0.01-1.25-0.02-2.51,0.01-3.76c0.01-0.56-0.23-0.85-0.75-1.03
	c-1-0.34-2.04-0.53-3.08-0.6c-2.05-0.14-4.12-0.28-6.12,0.35c-2.88,0.9-4.84,2.71-5.23,5.82c-0.36,2.94,1.05,5.01,3.49,6.49
	c1.39,0.84,2.9,1.39,4.38,2.01c0.7,0.29,1.41,0.58,1.97,1.13c0.77,0.77,0.58,1.86-0.42,2.3c-0.56,0.25-1.15,0.34-1.76,0.36
	c-2.51,0.08-4.89-0.44-7.11-1.61c-0.5-0.26-0.64-0.11-0.63,0.39C40.29,42.39,40.28,43.11,40.28,43.83"/>
<path class="st1" d="M21.59,27.6c0-1.34,0.02-2.68-0.01-4.02c-0.01-0.61,0.19-0.91,0.85-0.89c1.56,0.03,3.12-0.1,4.67,0.25
	c3.63,0.81,4.42,3.9,3.47,6.65c-0.32,0.93-1.04,1.55-1.88,2.02c-1.14,0.64-2.38,0.9-3.66,0.95c-0.85,0.04-1.7-0.02-2.55,0.02
	c-0.66,0.03-0.92-0.21-0.91-0.89C21.62,30.32,21.59,28.96,21.59,27.6"/>
</svg>
